<svg width="31" height="30" viewBox="0 0 31 30" fill="none" xmlns="http://www.w3.org/2000/svg">
<path d="M15.8677 27.0473H15.8502C12.6214 26.9873 3.30518 18.5698 3.30518 10.5973C3.30518 6.76728 6.46143 3.40479 10.0589 3.40479C12.9214 3.40479 14.8464 5.37979 15.8664 6.81729C16.8839 5.38229 18.8089 3.40479 21.6727 3.40479C25.2727 3.40479 28.4277 6.76729 28.4277 10.5985C28.4277 18.5685 19.1102 26.986 15.8814 27.0448H15.8677V27.0473ZM10.0602 5.28104C7.46018 5.28104 5.18143 7.76603 5.18143 10.5998C5.18143 17.7748 13.9739 25.0948 15.8689 25.1723C17.7664 25.0948 26.5564 17.776 26.5564 10.5998C26.5564 7.76603 24.2777 5.28104 21.6777 5.28104C18.5177 5.28104 16.7527 8.95104 16.7377 8.98729C16.4502 9.68979 15.2927 9.68979 15.0039 8.98729C14.9864 8.94979 13.2227 5.28104 10.0614 5.28104H10.0602Z" fill="#6C757D"/>
</svg>
