<svg width="31" height="30" viewBox="0 0 31 30" fill="none" xmlns="http://www.w3.org/2000/svg">
<path d="M18.4253 2.80254L13.2403 2.79004H13.2378C7.77029 2.79004 3.48779 7.07379 3.48779 12.5425C3.48779 17.665 7.47029 21.55 12.819 21.755V26.54C12.819 26.675 12.874 26.8975 12.969 27.0438C13.1465 27.325 13.449 27.4775 13.759 27.4775C13.9315 27.4775 14.1053 27.43 14.2615 27.33C14.5915 27.12 22.3528 22.155 24.3715 20.4475C26.749 18.435 28.1715 15.485 28.1753 12.5575V12.5363C28.1678 7.07754 23.8878 2.80254 18.4253 2.80129V2.80254ZM23.159 19.0175C21.7415 20.2175 17.0815 23.2738 14.694 24.8213V20.8375C14.694 20.32 14.2753 19.9 13.7565 19.9H13.2615C8.68654 19.9 5.36404 16.805 5.36404 12.5425C5.36404 8.12504 8.82404 4.66504 13.239 4.66504L18.4228 4.67754H18.4253C22.8403 4.67754 26.3003 8.13504 26.3028 12.5475C26.299 14.935 25.1253 17.3525 23.1603 19.0175H23.159Z" fill="#6C757D"/>
</svg>
