<svg width="14" height="14" viewBox="0 0 14 14" fill="none" xmlns="http://www.w3.org/2000/svg">
<path d="M7 13.4253H6.99067C5.26867 13.3933 0.300003 8.90392 0.300003 4.65192C0.300003 2.60925 1.98334 0.815918 3.902 0.815918C5.42867 0.815918 6.45534 1.86925 6.99934 2.63592C7.542 1.87058 8.56867 0.815918 10.096 0.815918C12.016 0.815918 13.6987 2.60925 13.6987 4.65258C13.6987 8.90325 8.72934 13.3926 7.00734 13.4239H7V13.4253ZM3.90267 1.81658C2.516 1.81658 1.30067 3.14192 1.30067 4.65325C1.30067 8.47992 5.99 12.3839 7.00067 12.4253C8.01267 12.3839 12.7007 8.48058 12.7007 4.65325C12.7007 3.14192 11.4853 1.81658 10.0987 1.81658C8.41334 1.81658 7.472 3.77392 7.464 3.79325C7.31067 4.16792 6.69334 4.16792 6.53934 3.79325C6.53 3.77325 5.58934 1.81658 3.90334 1.81658H3.90267Z" fill="#6C757D"/>
</svg>
